<svg xmlns="http://www.w3.org/2000/svg" width="1024" height="1024" viewBox="0 0 1024 1024" version="1.1"><path d="M 426.474 490 C 426.474 528.775, 426.598 544.638, 426.750 525.250 C 426.901 505.863, 426.901 474.137, 426.750 454.750 C 426.598 435.363, 426.474 451.225, 426.474 490 M 519.329 788.750 C 567.635 788.894, 646.385 788.893, 694.329 788.750 C 742.273 788.606, 702.750 788.489, 606.500 788.489 C 510.250 788.489, 471.023 788.606, 519.329 788.750" stroke="none" fill="#432a1e" fill-rule="evenodd"/><path d="" stroke="none" fill="#422a1d" fill-rule="evenodd"/><path d="M 519.828 185.750 C 554.658 185.896, 611.358 185.896, 645.828 185.750 C 680.297 185.604, 651.800 185.485, 582.500 185.485 C 513.200 185.485, 484.997 185.604, 519.828 185.750 M 327.544 215.145 C 337.214 227.660, 342.897 239.547, 346.627 255.056 C 348.314 262.070, 348.449 276.433, 348.959 503.500 C 349.500 744.500, 349.500 744.500, 352.239 752.578 C 357.208 767.233, 367.267 779.443, 378.782 784.800 C 390.516 790.258, 402.820 787.489, 414.592 776.738 C 421.127 770.770, 425.349 764.198, 427.536 756.590 C 429.959 748.161, 429.182 729.808, 426.060 721.711 C 422.776 713.195, 416.203 703.999, 410.544 700.001 C 407.818 698.076, 404.106 695.082, 402.294 693.350 C 399.395 690.578, 399 689.577, 399 685 C 399 680.461, 399.415 679.385, 402.267 676.533 C 404.543 674.257, 407.137 672.922, 410.816 672.133 C 414.633 671.314, 463.247 671, 586.065 671 L 756.033 671 755.761 464.750 C 755.490 258.500, 755.490 258.500, 753.177 251.016 C 746.831 230.486, 734.681 216.629, 717.584 210.423 C 710.909 208, 710.909 208, 516.466 208 L 322.023 208 327.544 215.145 M 568.357 357.992 C 562.713 360.269, 563 354.607, 563 463.667 C 563 563.888, 563 563.888, 565.413 566.694 C 567.827 569.500, 567.827 569.500, 583.500 569.500 C 606.011 569.500, 604 573.968, 604 523.944 L 604 484 634.050 484 C 666.659 484, 668.432 483.736, 670.805 478.528 C 672.074 475.743, 672.310 456.322, 671.127 452.090 C 670.756 450.765, 669.256 448.787, 667.794 447.696 C 665.276 445.815, 663.531 445.713, 634.568 445.751 L 604 445.790 604 420.395 L 604 395 641.550 395 C 681.537 395, 683.437 394.789, 685.970 390.055 C 686.537 388.997, 687 382.442, 687 375.489 C 687 362.849, 686.999 362.846, 684.077 359.923 C 681.154 357, 681.154 357, 625.827 357.063 C 595.397 357.098, 569.536 357.516, 568.357 357.992 M 506.202 408.022 C 502.188 409.074, 496.120 411.411, 492.718 413.217 C 485.620 416.984, 474.665 426.899, 471 432.871 C 469.625 435.113, 468.275 436.957, 468 436.970 C 467.725 436.983, 467.500 432.055, 467.500 426.018 C 467.500 415.357, 467.421 414.963, 464.728 412.271 C 461.956 409.500, 461.956 409.500, 447.002 409.500 C 424.100 409.500, 426.500 400.136, 426.500 489.500 C 426.500 578.864, 424.100 569.500, 447.002 569.500 C 469.274 569.500, 467.377 573.678, 468.014 523.229 C 468.509 484.054, 468.614 482.291, 470.755 477.023 C 476.335 463.292, 486.238 453.928, 499.857 449.507 C 503.897 448.196, 507.954 447.829, 516.357 448.017 C 522.486 448.153, 529.247 448.294, 531.382 448.329 C 534.278 448.377, 535.737 447.808, 537.132 446.086 C 538.780 444.050, 539 441.918, 539 427.971 C 539 419.277, 538.720 411.435, 538.379 410.545 C 538.037 409.654, 536.485 408.268, 534.928 407.463 C 530.806 405.331, 515.323 405.633, 506.202 408.022 M 486.750 808.750 C 541.337 808.893, 630.662 808.893, 685.250 808.750 C 739.837 808.607, 695.175 808.490, 586 808.490 C 476.825 808.490, 432.162 808.607, 486.750 808.750 M 381.878 809.988 C 384.287 811.044, 784.785 811.548, 785.836 810.497 C 786.110 810.224, 696.315 810, 586.292 810 C 476.269 810, 384.731 809.763, 382.875 809.473 C 379.878 809.006, 379.767 809.063, 381.878 809.988" stroke="none" fill="#f5c76b" fill-rule="evenodd"/><path d="M 386.750 187.750 C 446.288 187.892, 543.713 187.892, 603.250 187.750 C 662.788 187.608, 614.075 187.491, 495 187.491 C 375.925 187.491, 327.213 187.608, 386.750 187.750 M 419.750 207.750 C 472.688 207.893, 559.313 207.893, 612.250 207.750 C 665.188 207.607, 621.875 207.490, 516 207.490 C 410.125 207.490, 366.813 207.607, 419.750 207.750 M 270.733 213.718 C 269.211 213.948, 268.222 214.550, 268.535 215.057 C 268.848 215.563, 268.406 215.709, 267.552 215.382 C 266.698 215.054, 266 215.270, 266 215.862 C 266 216.453, 265.329 216.680, 264.508 216.365 C 263.658 216.039, 262.753 216.479, 262.404 217.391 C 262.066 218.269, 261.415 218.757, 260.957 218.473 C 260.498 218.190, 259.758 218.577, 259.311 219.333 C 258.865 220.089, 257.449 221.260, 256.164 221.935 C 254.880 222.610, 254.081 223.414, 254.389 223.722 C 254.696 224.030, 253.497 225.634, 251.724 227.288 C 249.951 228.941, 249.196 229.890, 250.047 229.397 C 250.898 228.904, 250.673 229.347, 249.547 230.382 C 248.421 231.417, 247.612 232.655, 247.750 233.132 C 247.887 233.610, 247.523 234, 246.941 234 C 246.359 234, 246.131 234.403, 246.435 234.895 C 246.740 235.388, 246.288 236.059, 245.431 236.388 C 244.574 236.717, 244.153 237.439, 244.496 237.993 C 244.838 238.547, 244.604 239, 243.976 239 C 243.347 239, 243.019 239.558, 243.247 240.241 C 243.475 240.924, 243.036 242.107, 242.273 242.870 C 241.510 243.633, 241.122 244.875, 241.411 245.629 C 241.700 246.383, 241.453 247, 240.862 247 C 240.270 247, 240.045 247.675, 240.362 248.500 C 240.678 249.325, 240.473 250, 239.906 250 C 239.338 250, 239.004 250.787, 239.162 251.750 C 239.321 252.713, 239.067 254.111, 238.600 254.857 C 237.467 256.665, 236.523 277.341, 237.466 279.670 C 237.874 280.676, 238.354 283.254, 238.533 285.397 C 238.711 287.540, 239.227 289.565, 239.679 289.897 C 240.130 290.229, 240.624 291.605, 240.775 292.956 C 240.926 294.307, 241.376 295.657, 241.775 295.956 C 242.174 296.255, 242.651 297.369, 242.836 298.432 C 243.313 301.178, 249.733 310.960, 251.504 311.640 C 252.321 311.953, 252.779 312.548, 252.524 312.961 C 251.601 314.454, 263.111 322.555, 264.369 321.298 C 264.716 320.951, 265 321.174, 265 321.795 C 265 322.415, 267.363 323.626, 270.250 324.485 C 274.476 325.743, 280.718 326.031, 302.250 325.964 L 329 325.880 329 310.440 L 329 295 302.577 295 C 276.153 295, 276.153 295, 273.077 292.411 C 270.419 290.175, 270 289.161, 270 284.967 C 270 281.277, 270.579 279.438, 272.412 277.306 C 274.824 274.500, 274.824 274.500, 301.380 274.204 L 327.936 273.907 327.509 266.717 C 327.275 262.763, 326.639 259.380, 326.098 259.199 C 325.556 259.019, 325.364 258.216, 325.671 257.416 C 326.349 255.649, 322.136 244, 320.819 244 C 320.304 244, 320.160 243.550, 320.500 243 C 320.840 242.450, 320.615 242, 320 242 C 319.385 242, 319.131 241.597, 319.435 241.105 C 319.740 240.612, 319.324 239.954, 318.511 239.643 C 317.699 239.331, 317.287 238.417, 317.596 237.611 C 317.953 236.679, 315.262 233.211, 310.193 228.073 C 303.007 220.791, 301.198 219.495, 298.750 219.882 C 298.337 219.947, 298 219.599, 298 219.109 C 298 217.912, 290.117 214.810, 288.934 215.541 C 288.420 215.858, 288 215.589, 288 214.942 C 288 214.259, 287.163 213.986, 286.001 214.289 C 284.902 214.577, 283.750 214.404, 283.442 213.906 C 282.888 213.010, 276.085 212.909, 270.733 213.718 M 499.250 671.750 C 546.413 671.894, 623.588 671.894, 670.750 671.750 C 717.913 671.606, 679.325 671.489, 585 671.489 C 490.675 671.489, 452.088 671.606, 499.250 671.750 M 432.262 691.692 C 433.231 691.945, 433.767 692.567, 433.453 693.076 C 433.139 693.584, 433.359 694, 433.941 694 C 434.523 694, 434.929 694.337, 434.841 694.750 C 434.492 696.399, 436.280 698.948, 437.355 698.334 C 437.985 697.974, 438.168 698.046, 437.763 698.493 C 437.046 699.286, 440.508 705.890, 442.283 707.112 C 442.771 707.448, 443.058 707.898, 442.921 708.112 C 442.783 708.325, 443.622 711.425, 444.784 715 C 452.715 739.388, 449.558 765.622, 436.613 782.899 C 435.213 784.769, 434.260 786.611, 434.495 786.993 C 434.731 787.374, 514.283 787.645, 611.277 787.593 L 787.629 787.500 794.065 784.161 C 800.695 780.720, 809.310 773.311, 808.398 771.834 C 808.114 771.375, 808.349 771, 808.921 771 C 810.217 771, 814.142 763.476, 813.290 762.624 C 812.947 762.281, 813.130 762, 813.696 762 C 815.039 762, 818.369 751.404, 817.631 749.480 C 817.318 748.666, 817.471 748, 817.970 748 C 818.470 748, 818.894 743.500, 818.914 738 C 818.937 731.468, 818.573 728, 817.866 728 C 817.210 728, 817.031 727.014, 817.411 725.500 C 817.756 724.125, 817.692 722.999, 817.269 722.998 C 816.846 722.996, 816.447 721.554, 816.383 719.792 C 816.319 718.030, 815.754 716.418, 815.127 716.209 C 814.500 716, 814.242 715.418, 814.553 714.915 C 814.864 714.412, 814.615 714, 814 714 C 813.385 714, 813.138 713.586, 813.450 713.081 C 813.763 712.575, 813.307 711.450, 812.438 710.581 C 811.568 709.711, 811.200 709, 811.620 709 C 812.039 709, 811.509 708.292, 810.441 707.426 C 809.374 706.560, 809.175 706.148, 810 706.510 C 810.825 706.872, 810.132 705.893, 808.461 704.334 C 806.790 702.775, 806.115 701.936, 806.961 702.470 C 807.807 703.003, 807.422 702.229, 806.105 700.751 C 804.787 699.272, 803.325 698.299, 802.855 698.590 C 802.385 698.880, 802 698.653, 802 698.085 C 802 696.607, 796.158 693.784, 794.816 694.614 C 794.078 695.070, 793.973 694.853, 794.510 693.985 C 795.104 693.023, 794.872 692.835, 793.664 693.299 C 792.742 693.653, 792 693.453, 792 692.852 C 792 692.255, 791.100 692.002, 790 692.290 C 788.900 692.577, 788 692.405, 788 691.906 C 788 691.367, 715.527 691.047, 609.250 691.116 C 510.938 691.180, 431.293 691.439, 432.262 691.692" stroke="none" fill="#b9853b" fill-rule="evenodd"/><path d="M 269.265 189.536 C 258.029 192.574, 245.561 200.978, 237.057 211.246 C 230.353 219.341, 222.645 235.112, 219.828 246.500 C 216.729 259.029, 216.739 280.814, 219.850 292.500 C 223.662 306.819, 235.997 328.356, 239.239 326.353 C 239.842 325.980, 240.020 326.158, 239.647 326.762 C 237.788 329.770, 257.825 342.607, 268 344.925 C 270.487 345.492, 285.138 345.962, 300.750 345.976 L 329 346 329.008 539.750 C 329.014 664.983, 329.377 736.650, 330.037 742.409 C 333.393 771.704, 350.908 796.057, 375.142 805.122 C 381.500 807.500, 381.500 807.500, 583.293 807.762 C 759.736 807.991, 785.897 807.836, 791.552 806.524 C 799.016 804.793, 808.348 800.372, 807.485 798.976 C 807.159 798.447, 807.592 798.290, 808.458 798.622 C 809.519 799.029, 812.542 796.698, 817.872 791.361 C 830.240 778.978, 836.894 763.555, 838.521 743.500 C 839.852 727.090, 835.412 708.468, 827.164 695.869 C 816.477 679.546, 803.157 672, 785.032 672 L 776 672 775.994 469.250 C 775.989 297.964, 775.765 265.019, 774.549 256.955 C 769.922 226.262, 751.469 202.099, 724.369 191.250 C 717.500 188.500, 717.500 188.500, 496 188.310 C 307.686 188.149, 273.716 188.332, 269.265 189.536 M 321 207.813 C 321 208.260, 322.350 209.919, 324 211.500 C 327.032 214.405, 328.273 217.302, 325.500 215 C 324.464 214.140, 324 214.102, 324 214.878 C 324 215.898, 325.337 216.414, 327.228 216.126 C 327.629 216.064, 329.541 218.368, 331.478 221.244 C 334.939 226.383, 335.884 228.664, 334.093 227.558 C 333.595 227.249, 333.445 227.986, 333.761 229.195 C 334.305 231.276, 334.372 231.290, 335.016 229.453 C 335.615 227.746, 335.906 227.918, 337.444 230.893 C 339.883 235.608, 343.776 246.139, 345.762 253.391 C 347.297 258.997, 347.479 279.398, 347.980 501 C 348.526 742.500, 348.526 742.500, 350.791 749.839 C 353.653 759.112, 356.764 765.256, 361.860 771.703 C 364.070 774.500, 365.681 777.061, 365.439 777.394 C 365.198 777.727, 365.288 777.787, 365.640 777.527 C 365.992 777.266, 367.980 778.400, 370.057 780.045 C 375.855 784.637, 384.743 788.194, 390.313 788.151 C 400.661 788.071, 413.243 780.981, 420.655 771.053 C 422.795 768.186, 424.685 766.491, 425.062 767.100 C 425.475 767.768, 425.956 767.556, 426.349 766.532 C 426.716 765.576, 426.566 765.150, 425.989 765.507 C 424.609 766.360, 424.718 765.789, 427.081 759.796 C 431.584 748.371, 430.468 730.042, 424.484 717.153 C 423.119 714.212, 422.228 711.440, 422.504 710.993 C 423.216 709.841, 421.983 707, 420.771 707 C 420.192 707, 420.300 707.656, 421.020 708.524 C 421.716 709.362, 422.076 710.258, 421.820 710.513 C 421.564 710.769, 419.919 709.070, 418.164 706.739 C 416.409 704.408, 412.684 700.925, 409.888 699 C 402.659 694.024, 400.134 691.233, 399.421 687.432 C 398.725 683.719, 400.085 678.500, 401.750 678.500 C 402.346 678.500, 403.208 678.090, 403.667 677.590 C 404.151 677.061, 403.976 676.981, 403.250 677.399 C 402.563 677.794, 402 677.653, 402 677.085 C 402 676.516, 403.462 675.252, 405.250 674.276 C 408.323 672.597, 418 672.486, 582.500 672.236 L 756.500 671.973 756.267 467.236 C 756.007 238.946, 756.535 255.525, 749.012 239.348 C 746.927 234.864, 743.306 229.117, 740.964 226.577 C 738.623 224.037, 737.003 221.664, 737.364 221.303 C 737.725 220.941, 738.724 221.513, 739.584 222.573 C 741.236 224.608, 740.405 222.424, 738.683 220.203 C 737.898 219.191, 737.510 219.175, 736.921 220.129 C 736.380 221.004, 735.135 220.447, 732.545 218.174 C 730.555 216.426, 726.700 213.868, 723.980 212.490 C 712.521 206.683, 724.625 207, 514.290 207 C 407.980 207, 321 207.366, 321 207.813 M 266 215.205 C 254.778 219.491, 243.198 235.085, 238.975 251.598 C 236.453 261.460, 236.198 278.935, 238.451 287.500 C 241.236 298.084, 246.724 307.910, 253.670 314.750 C 257.161 318.188, 259.653 321, 259.209 321 C 258.764 321, 257.769 320.438, 256.998 319.750 C 255.801 318.682, 255.795 318.762, 256.958 320.296 C 257.708 321.283, 258.875 321.878, 259.552 321.618 C 260.230 321.358, 263.646 322.350, 267.142 323.823 C 273.446 326.477, 273.735 326.503, 301.442 326.822 C 316.811 326.999, 328.796 327.508, 328.076 327.953 C 327.156 328.522, 327.055 329.275, 327.735 330.490 C 329.322 333.326, 329.527 330.742, 329.186 312.250 L 328.868 295 303.384 295 C 276.363 295, 273.437 294.553, 271.030 290.055 C 269.551 287.292, 269.761 282.363, 271.502 278.997 C 273.771 274.609, 277.749 274.012, 304.769 274.006 C 329.038 274, 329.038 274, 328.572 271.750 C 328.315 270.512, 327.814 266.829, 327.457 263.565 C 325.635 246.868, 315.694 229.636, 302.989 221.152 C 291.155 213.249, 277.056 210.982, 266 215.205 M 565.924 360.580 C 563.500 363.161, 563.500 363.161, 563.236 462.078 C 562.939 573.221, 562.547 566.993, 569.964 568.990 C 574.845 570.305, 591.930 570.236, 597.243 568.881 C 603.992 567.160, 604 567.104, 604 522.711 L 604 483.322 614.250 483.209 C 619.888 483.147, 633.858 483.074, 645.295 483.048 C 666.012 483, 666.100 482.991, 668.545 480.545 C 670.890 478.201, 671 477.529, 671 465.593 C 671 452.129, 670.175 448.857, 666.343 447.110 C 664.730 446.376, 653.775 446, 633.953 446 L 604 446 604 420 L 604 394 642.444 394 C 680.888 394, 680.888 394, 683.629 391.642 C 686.166 389.460, 686.403 388.606, 686.805 380.187 C 687.348 368.834, 686.496 362.909, 683.922 360.146 C 681.922 358, 681.922 358, 625.135 358 C 568.349 358, 568.349 358, 565.924 360.580 M 515.500 406.626 C 504.688 408.755, 501.650 409.616, 496.069 412.136 C 489.264 415.208, 482.493 419.826, 483.426 420.759 C 483.732 421.065, 483.486 421.914, 482.879 422.645 C 482.273 423.376, 482.062 424.719, 482.411 425.629 C 482.942 427.013, 482.797 427.077, 481.523 426.019 C 480.070 424.813, 479.527 425.329, 479.965 427.500 C 480.076 428.050, 479.828 428.162, 479.414 427.748 C 479.001 427.334, 477.726 427.771, 476.581 428.719 C 475.437 429.667, 476.506 428.318, 478.958 425.722 C 481.410 423.125, 482.889 421, 482.245 421 C 480.883 421, 471.304 432.240, 469.740 435.672 C 467.719 440.107, 467 437.951, 467 427.450 C 467 411.336, 465.909 410.099, 451.500 409.879 C 434.135 409.612, 432.053 409.856, 429.455 412.455 C 427 414.909, 427 414.909, 427 488.520 C 427 564.243, 427.024 564.732, 430.913 567.718 C 433.004 569.324, 458.921 569.449, 462.385 567.870 C 463.749 567.249, 465.333 565.561, 465.905 564.120 C 466.541 562.519, 467.070 546.530, 467.266 523 C 467.572 486.142, 467.680 484.248, 469.798 478.580 C 473.097 469.750, 476.316 464.826, 482.466 459.205 C 493.313 449.291, 503.070 446.388, 522.152 447.395 C 534.805 448.063, 534.805 448.063, 536.903 445.397 C 538.823 442.956, 539 441.451, 539 427.588 C 539 410.453, 538.446 408.773, 532.221 407.044 C 528.622 406.045, 519.597 405.819, 515.500 406.626 M 431.379 693.922 C 431.691 696.600, 435 701.418, 435 699.194 C 435 698.672, 434.325 697.685, 433.500 697 C 432.675 696.315, 432 695.305, 432 694.755 C 432 692.879, 434.800 696.057, 438.209 701.800 C 453.359 727.330, 452.085 764.353, 435.385 783.863 C 433.523 786.038, 432 788.084, 432 788.409 C 432 788.734, 510.412 788.995, 606.250 788.988 C 793.278 788.975, 784.878 789.198, 795.309 783.988 C 802.225 780.534, 809.663 772.561, 813.456 764.535 C 817.907 755.118, 819.377 748.283, 819.272 737.499 C 819.166 726.614, 816.993 717.581, 812.500 709.345 C 810.654 705.960, 809.336 702.923, 809.571 702.595 C 809.807 702.268, 809.708 702.217, 809.351 702.482 C 808.995 702.747, 807.062 701.482, 805.058 699.671 C 803.053 697.860, 799.183 695.281, 796.457 693.939 C 791.500 691.500, 791.500 691.500, 611.268 691.239 C 431.037 690.979, 431.037 690.979, 431.379 693.922" stroke="none" fill="#40271a" fill-rule="evenodd"/></svg>